<svg width="509" height="329" viewBox="0 0 509 329" fill="none" xmlns="http://www.w3.org/2000/svg">
<path d="M471.947 0.0666504H37.3866C17.2252 0.0666504 0.798584 16.4933 0.798584 36.6546V292.015C0.798584 312.176 17.2252 328.603 37.3866 328.603H471.947C492.108 328.603 508.535 312.176 508.535 292.015L508.529 36.6546C508.529 16.4986 492.103 0.070638 471.945 0.070638L471.947 0.0666504ZM299.467 232.28C291.253 241.238 281.545 246.468 268.852 247.963V259.161C268.852 263.64 267.357 267.374 264.373 270.358C261.388 273.343 257.654 274.093 253.175 274.093C242.722 274.093 237.492 268.864 237.492 259.161V248.708H216.586C212.106 248.708 208.372 247.213 205.388 244.229C202.403 241.244 200.908 237.51 200.908 233.775C200.908 229.296 202.403 225.562 205.388 222.578C208.372 219.593 212.106 218.098 216.586 218.098H256.903C262.877 218.098 268.101 216.604 272.586 212.869C276.32 209.135 278.56 204.656 278.56 198.681C278.56 189.723 273.33 183.749 263.628 180.015L230.773 167.322C209.122 159.108 197.918 144.177 197.918 124.015C197.918 112.817 201.653 102.365 209.116 94.8952C216.585 86.6816 225.543 81.4578 237.491 79.9632V68.7653C237.491 64.2861 238.986 60.5517 241.97 57.5674C244.954 54.5832 248.689 53.0882 253.168 53.0882C257.647 53.0882 261.381 54.583 264.366 57.5674C267.35 60.5518 268.845 64.2863 268.845 68.7653V79.2184H287.512C291.991 79.2184 295.725 80.7132 298.709 83.6976C301.694 86.682 303.189 90.4164 303.189 94.8954C303.189 99.3745 301.694 103.109 298.709 105.349C295.725 108.333 291.991 109.828 287.512 109.828H247.938C243.459 109.828 238.98 111.323 235.99 114.307C232.256 117.291 230.761 121.026 230.761 125.505C230.761 132.224 234.496 137.453 241.959 140.437L272.574 152.385C297.959 163.583 311.402 180.01 311.402 200.915C311.407 212.863 306.928 223.317 299.464 232.279L299.467 232.28Z" fill="#000080"/>
</svg>
