<svg width="38" height="38" viewBox="0 0 38 38" fill="none" xmlns="http://www.w3.org/2000/svg">
<path d="M19 0C13.9609 0 9.12816 2.00178 5.56497 5.56497C2.00178 9.12816 0 13.9609 0 19C0 24.0391 2.00178 28.8718 5.56497 32.435C9.12816 35.9982 13.9609 38 19 38C24.0391 38 28.8718 35.9982 32.435 32.435C35.9982 28.8718 38 24.0391 38 19C38 13.9609 35.9982 9.12816 32.435 5.56497C28.8718 2.00178 24.0391 0 19 0V0Z" fill="#039BE5"/>
<path d="M21.572 24.036H26.489L27.261 19.041H21.571V16.311C21.571 14.236 22.249 12.396 24.19 12.396H27.309V8.03699C26.761 7.96299 25.602 7.80099 23.412 7.80099C18.839 7.80099 16.158 10.216 16.158 15.718V19.041H11.457V24.036H16.158V37.765C17.089 37.905 18.032 38 19 38C19.875 38 20.729 37.92 21.572 37.806V24.036Z" fill="white"/>
</svg>
