<?xml version="1.0" standalone="no"?>
<!DOCTYPE svg PUBLIC "-//W3C//DTD SVG 20010904//EN"
 "http://www.w3.org/TR/2001/REC-SVG-20010904/DTD/svg10.dtd">
<svg version="1.0" xmlns="http://www.w3.org/2000/svg"
 width="1280.000000pt" height="1003.000000pt" viewBox="0 0 1280.000000 1003.000000"
 preserveAspectRatio="xMidYMid meet">
<metadata>

</metadata>
<g transform="translate(0.000000,1003.000000) scale(0.100000,-0.100000)"
fill="#000080" stroke="none">
<path d="M5692 9810 c-24 -11 -59 -33 -79 -49 -34 -28 -37 -29 -118 -24 -186
12 -393 -48 -548 -160 -63 -45 -1214 -1175 -1272 -1248 -64 -81 -120 -190
-151 -294 -22 -74 -27 -113 -30 -223 l-2 -133 -37 -41 c-52 -56 -76 -116 -76
-187 -1 -123 51 -210 155 -261 60 -30 71 -32 149 -29 l85 4 663 -674 c365
-371 664 -678 664 -682 0 -5 -251 -256 -559 -557 l-559 -549 -61 20 c-71 23
-294 35 -364 19 -25 -6 -44 -6 -48 -1 -3 5 -29 22 -57 36 -69 37 -187 39 -258
6 -123 -56 -200 -205 -171 -330 l10 -43 -1231 -1212 c-729 -719 -1238 -1212
-1247 -1210 -80 15 -139 13 -191 -7 -116 -44 -188 -139 -197 -262 -5 -75 7
-125 46 -184 26 -38 27 -46 27 -185 1 -158 13 -222 65 -336 71 -157 200 -292
352 -368 135 -67 188 -79 354 -81 l140 -1 49 -37 c193 -148 466 -27 482 213 3
42 0 80 -9 106 l-15 42 1080 1063 c593 585 1146 1128 1228 1207 140 135 150
142 171 130 13 -7 57 -12 103 -12 67 0 88 4 130 26 175 91 222 306 102 459
-23 29 -23 31 -9 107 15 87 10 208 -14 298 l-14 57 427 420 c236 232 491 483
569 559 l140 138 680 -691 c373 -380 677 -696 675 -703 -2 -6 -6 -39 -9 -73
-8 -115 48 -217 152 -271 43 -22 64 -27 131 -27 84 0 114 10 185 63 33 25 38
26 195 27 134 2 172 5 235 24 90 27 211 86 277 135 75 57 1229 1194 1280 1261
122 162 182 366 170 572 l-6 95 33 42 c108 141 51 355 -113 429 -33 15 -68 21
-123 21 l-77 1 -1583 1608 -1583 1607 0 83 c0 72 -4 89 -30 136 -36 65 -92
115 -153 135 -63 22 -157 20 -210 -4z"/>
<path d="M7736 1849 c-162 -38 -332 -204 -370 -361 -6 -27 -8 -28 -79 -28
-379 -1 -661 -351 -582 -725 47 -224 232 -410 457 -460 66 -14 307 -15 2493
-13 l2420 3 75 27 c188 69 329 220 386 413 27 94 24 239 -9 340 -79 241 -310
414 -553 415 l-60 0 -17 54 c-35 111 -135 229 -244 288 -112 62 9 58 -2023 57
-1087 -1 -1871 -5 -1894 -10z"/>
</g>
</svg>
