<svg width="744" height="745" viewBox="0 0 744 745" fill="none" xmlns="http://www.w3.org/2000/svg">
<path d="M372.16 0.984375C167.12 0.984375 0.306641 167.798 0.306641 372.838C0.306641 577.864 167.12 744.678 372.16 744.678C577.187 744.678 744 577.864 744 372.838C744 167.798 577.187 0.984375 372.16 0.984375V0.984375ZM372.16 692.571C195.853 692.571 52.4133 549.131 52.4133 372.838C52.4133 344.51 56.1633 315.978 63.106 289.807C64.5644 290.088 66.059 289.203 67.5956 289.203H72.0018V314.536C72.0018 325.349 81.8196 334.13 92.6325 334.13C94.4606 334.13 96.7158 333.801 98.3981 333.333L139.601 374.265C143.705 378.379 150.486 378.379 154.617 374.265C158.721 370.166 158.789 363.504 154.684 359.39L114.711 317.619C114.847 316.609 116.805 315.583 116.805 314.541V308.291C116.805 299.838 121.664 296.671 130.086 289.203H154.591C159.206 289.203 163.425 288.865 167.097 286.656C167.539 286.396 167.987 286.693 168.404 286.411C169.263 285.823 170.024 285.401 170.8 284.719C171.144 284.406 171.539 284.318 171.867 283.979L172.779 283.135L257.003 198.958C266.341 189.609 266.341 174.469 257.003 165.125C247.664 155.786 232.498 157.396 223.148 166.739L206.836 184.671H176.534V159.354C176.534 158.932 179.164 162.271 179.133 154.807H213.215C219.694 154.807 224.944 150.088 224.944 143.609C224.95 137.125 219.7 132.406 213.22 132.406H159.095C215.704 87.6035 290.376 53.6822 372.162 53.6822C450.798 53.6822 522.855 80.1408 578.602 132.406H510.618C510.467 132.406 510.363 130.75 510.217 130.755C507.826 130.635 505.394 130.568 503.566 132.396L475.587 159.942C472.155 163.39 472.139 168.76 475.587 172.208C479.035 175.651 484.623 175.547 488.071 172.093L510.181 148.609C510.337 148.609 510.462 147.333 510.623 147.333H523.837C523.65 154.807 519.998 152.365 519.998 153.609V157.531C519.998 169.016 512.176 177.203 500.676 177.203H480.645C470.749 177.203 460.265 188.344 460.265 198.225V207.074H455.75C449.583 207.074 445.333 210.256 445.333 216.407V229.475H432.776C423.947 229.475 416.812 235.522 416.812 244.335C416.812 253.148 423.952 257.975 432.776 257.975C436.671 257.975 440.177 259.339 442.932 251.876H442.953L445.109 252.428L470.786 229.474H479.901L500.494 249.105C502.197 250.808 504.952 250.324 506.645 248.626C508.353 246.923 508.353 242.517 506.645 240.813L489.505 222.007H501.917L506.776 228.288C516.417 237.918 532.041 237.22 541.677 227.585L546.558 222.007H567.839C568.636 222.007 572.266 224.705 572.266 224.595V237.335C572.266 237.319 569.771 236.939 569.558 236.939H550.516C544.433 236.939 539.496 242.059 539.496 248.137C539.496 254.231 544.423 259.335 550.516 259.335H569.558C569.771 259.34 572.266 259.132 572.266 259.116V267.069C564.802 278.158 559.266 289.205 548.173 289.205H497.975C497.887 289.205 497.835 288.945 497.757 288.866L475.215 266.293C465.585 256.663 449.97 256.647 440.33 266.277L417.794 288.881C417.726 288.96 417.664 289.204 417.58 289.204H404.231C390.611 289.204 378.138 300.095 378.138 313.726V362.507C378.138 376.111 390.612 386.272 404.231 386.272H452.132C470.215 393.741 482.668 404.939 490.138 423.022V512.24C490.138 525.86 499.034 535.604 512.668 535.604H551.1C564.726 535.604 572.267 525.86 572.267 512.24V425.98L619.694 380.335L621.433 379.46L622.397 378.939L623.996 378.892C627.907 374.528 632.001 368.814 632.001 362.502V313.72C632.001 304.038 623.511 296.674 615.386 289.204H637.96C638.616 304.136 649.303 311.606 662.501 311.606H686.58C690.007 334.007 691.897 351.366 691.897 371.079C691.897 547.372 548.471 692.572 372.164 692.572L372.16 692.571Z" fill="#000080"/>
<path d="M437.88 199.84C441.531 199.84 445.338 196.876 445.338 193.225V176.881C445.338 173.225 441.531 170.256 437.88 170.256C434.229 170.256 430.406 173.22 430.406 176.881V193.225C430.406 196.876 434.229 199.84 437.88 199.84Z" fill="#000080"/>
<path d="M219.333 363.867H183.615C169.995 363.867 161.593 374.882 161.593 388.517V481.329C161.593 494.949 169.994 505.745 183.615 505.745L198.927 505.74V599.543C198.927 612.767 211.838 623.475 225.063 623.475C238.276 623.475 251.199 612.761 251.199 599.543L251.193 543.07H250.303C263.943 543.07 273.595 535.549 273.595 521.929V505.736H280.772C294.408 505.736 303.465 494.944 303.465 481.32V449.768C303.465 449.508 303.825 449.32 303.533 449.029L219.333 363.867Z" fill="#000080"/>
<path d="M391.747 117.459C391.747 104.047 380.861 95.068 367.435 95.068H338.435C325.023 95.068 315.976 104.724 315.976 118.131C315.976 119.922 310.929 120.438 318.393 122.125L318.398 147.333C318.398 155.188 321.736 161.557 329.596 161.557C337.46 161.557 340.799 155.188 340.799 147.333V139.865H367.439C380.86 139.865 391.745 130.885 391.745 117.458L391.747 117.459Z" fill="#000080"/>
<path d="M399.36 154.8H410.969C414.365 154.8 417.136 154.477 417.136 151.066C417.141 147.654 414.37 147.331 410.964 147.331H399.355C395.948 147.331 393.204 147.659 393.204 151.066C393.204 154.472 395.959 154.8 399.36 154.8V154.8Z" fill="#000080"/>
<path d="M275.533 152.48C279.341 148.673 279.341 142.496 275.533 138.683L248.845 112.011C245.028 108.203 238.876 108.203 235.053 112.011C231.236 115.813 231.236 122 235.053 125.808L261.731 152.485C265.522 156.293 271.715 156.293 275.533 152.48V152.48Z" fill="#000080"/>
<path d="M613.347 464.64C608.029 464.64 602.133 468.947 602.133 474.265V504.348C602.133 509.655 608.034 513.962 613.347 513.962C618.649 513.962 624.534 509.655 624.534 504.348V474.265C624.529 468.947 618.649 464.64 613.347 464.64Z" fill="#000080"/>
</svg>
