<svg width="41" height="41" viewBox="0 0 41 41" fill="none" xmlns="http://www.w3.org/2000/svg">
<path fill-rule="evenodd" clip-rule="evenodd" d="M1.00043 39.303L3.69443 29.468C2.03243 26.59 1.15843 23.324 1.15943 19.979C1.16443 9.514 9.68043 1 20.1464 1C25.2254 1.002 29.9914 2.979 33.5764 6.566C37.1604 10.154 39.1344 14.922 39.1324 19.994C39.1284 30.459 30.6104 38.974 20.1464 38.974C20.1454 38.974 20.1464 38.974 20.1464 38.974H20.1384C16.9614 38.973 13.8384 38.176 11.0654 36.663L1.00043 39.303Z" fill="white"/>
<path fill-rule="evenodd" clip-rule="evenodd" d="M1.00042 39.803C0.868417 39.803 0.740417 39.751 0.645417 39.655C0.520417 39.528 0.471418 39.343 0.518418 39.172L3.15742 29.536C1.52142 26.63 0.658417 23.33 0.660417 19.98C0.664417 9.238 9.40542 0.5 20.1464 0.5C25.3564 0.502 30.2514 2.531 33.9304 6.213C37.6094 9.896 39.6344 14.79 39.6324 19.994C39.6284 30.735 30.8864 39.474 20.1464 39.474C16.9574 39.473 13.8024 38.686 11.0024 37.197L1.12742 39.786C1.08542 39.798 1.04342 39.803 1.00042 39.803Z" fill="white"/>
<path fill-rule="evenodd" clip-rule="evenodd" d="M20.1464 1C25.2254 1.002 29.9914 2.979 33.5764 6.566C37.1604 10.154 39.1344 14.922 39.1324 19.994C39.1284 30.459 30.6104 38.974 20.1464 38.974H20.1384C16.9614 38.973 13.8384 38.176 11.0654 36.663L1.00041 39.303L3.69441 29.468C2.03241 26.59 1.15841 23.324 1.15941 19.979C1.16441 9.514 9.68041 1 20.1464 1ZM20.1464 0C9.13041 0 0.164411 8.962 0.159411 19.979C0.158411 23.346 1.00841 26.664 2.62041 29.601L0.0354115 39.04C-0.0585885 39.385 0.0374114 39.753 0.289411 40.007C0.479411 40.199 0.736411 40.304 1.00041 40.304C1.08541 40.304 1.17041 40.293 1.25441 40.271L10.9414 37.731C13.7694 39.199 16.9394 39.974 20.1384 39.975C31.1624 39.975 40.1284 31.012 40.1334 19.995C40.1354 14.656 38.0584 9.636 34.2854 5.86C30.5104 2.083 25.4894 0.002 20.1464 0Z" fill="#CFD8DC"/>
<path fill-rule="evenodd" clip-rule="evenodd" d="M31.3084 8.83199C28.3284 5.84999 24.3674 4.20699 20.1514 4.20599C11.4474 4.20599 4.36841 11.282 4.36441 19.98C4.36341 22.961 5.19741 25.863 6.77741 28.376L7.15341 28.973L5.55841 34.794L11.5314 33.228L12.1084 33.57C14.5304 35.008 17.3084 35.768 20.1404 35.769H20.1464C28.8444 35.769 35.9234 28.692 35.9264 19.993C35.9274 15.778 34.2884 11.814 31.3084 8.83199Z" fill="#40C351"/>
<path fill-rule="evenodd" clip-rule="evenodd" d="M15.4004 12.045C15.0454 11.255 14.6714 11.239 14.3324 11.225C14.0554 11.213 13.7394 11.214 13.4234 11.214C13.1074 11.214 12.5934 11.333 12.1584 11.808C11.7234 12.283 10.4974 13.43 10.4974 15.764C10.4974 18.098 12.1974 20.354 12.4344 20.67C12.6714 20.986 15.7164 25.929 20.5384 27.831C24.5454 29.411 25.3614 29.097 26.2314 29.018C27.1014 28.939 29.0384 27.871 29.4334 26.763C29.8284 25.655 29.8284 24.706 29.7104 24.508C29.5914 24.31 29.2754 24.192 28.8014 23.954C28.3274 23.716 25.9944 22.569 25.5594 22.411C25.1244 22.253 24.8084 22.174 24.4914 22.649C24.1754 23.123 23.2664 24.192 22.9894 24.508C22.7124 24.825 22.4354 24.865 21.9614 24.627C21.4874 24.389 19.9594 23.889 18.1464 22.273C16.7364 21.016 15.7844 19.463 15.5074 18.988C15.2304 18.514 15.4774 18.257 15.7154 18.02C15.9284 17.807 16.1894 17.466 16.4274 17.189C16.6644 16.912 16.7434 16.714 16.9014 16.398C17.0594 16.081 16.9804 15.804 16.8614 15.567C16.7444 15.329 15.8224 12.983 15.4004 12.045Z" fill="white"/>
</svg>
