<svg width="1439" height="204" viewBox="0 0 1439 204" fill="none" xmlns="http://www.w3.org/2000/svg">
<path d="M0 34.7323L45.4552 45.4246C90.9105 55.7173 181.821 77.7015 272.731 72.0056C363.642 66.7094 454.552 34.7323 545.463 56.017C636.373 77.7015 727.284 151.648 818.194 141.356C909.105 130.663 1000.02 34.7323 1090.93 8.05147C1181.84 -18.2297 1272.75 23.7402 1363.66 77.4017C1454.57 130.663 1458.54 134.023 1504 166H1456.84H1411.38C1365.93 166 1443.77 166 1352.86 166C1261.95 166 1219.9 166 1128.99 166C1038.08 166 931.832 166 840.922 166C750.011 166 652.283 166 561.372 166C470.462 166 371.028 166 280.118 166C189.207 166 113.07 166 67.6147 166H0V34.7323Z" fill="none" fill-opacity="1"/>
<path d="M0 54.7323L45.4552 65.4246C90.9105 75.7173 181.821 97.7015 272.731 92.0056C363.642 86.7094 454.552 54.7323 545.463 76.017C636.373 97.7015 727.284 171.648 818.194 161.356C909.105 150.663 1000.02 54.7323 1090.93 28.0515C1181.84 1.77033 1272.75 43.7402 1363.66 97.4017C1454.57 150.663 1458.54 154.023 1504 186H1456.84H1411.38C1365.93 186 1443.77 186 1352.86 186C1261.95 186 1219.9 186 1128.99 186C1038.08 186 931.832 186 840.922 186C750.011 186 652.283 186 561.372 186C470.462 186 371.028 186 280.118 186C189.207 186 113.07 186 67.6147 186H0V54.7323Z" fill="none" fill-opacity="1"/>
<path d="M1 72.7323L46.4552 83.4246C91.9105 93.7173 182.821 115.701 273.731 110.006C364.642 104.709 455.552 72.7323 546.463 94.017C637.373 115.701 728.284 189.648 819.194 179.356C910.105 168.663 1001.02 72.7323 1091.93 46.0515C1182.84 19.7703 1273.75 61.7402 1364.66 115.402C1455.57 168.663 1459.54 172.023 1505 204H1457.84H1412.38C1366.93 204 1444.77 204 1353.86 204C1262.95 204 1220.9 204 1129.99 204C1039.08 204 932.832 204 841.922 204C751.011 204 653.283 204 562.372 204C471.462 204 372.028 204 281.118 204C190.207 204 114.07 204 68.6147 204H1V72.7323Z" fill="#000080" fill-opacity="1"/>
</svg>
